<?xml version="1.0"?>
<svg xmlns="http://www.w3.org/2000/svg">
		
	<defs>
	
		<path id="notification" d="M423.411 145.434c-6.802-11.713-6.82-26.229-.027-37.948l.033-.057c10.571-18.31 4.297-41.724-14.012-52.293-18.31-10.571-41.723-4.299-52.293 14.011l-.034.058c-6.76 11.756-19.315 18.984-32.877 18.95-98.275-.248-137.096 164.946-228.579 145.286l-18.976 32.865 316.258 182.591 18.975-32.864c-62.767-69.398 60.885-185.615 11.532-270.599zm-25.381-70.597c7.416 4.283 9.968 13.799 5.685 21.217-4.282 7.416-13.799 9.966-21.216 5.684s-9.968-13.8-5.686-21.216c4.283-7.418 13.8-9.967 21.217-5.685zm-89.514 361.05c-14.418 24.972-46.349 33.527-71.321 19.109-24.971-14.418-33.527-46.348-19.11-71.319l90.431 52.21z"/>
		
		<path id="favoris-full" d="M450.703 124.225c-40.47-82.806-163.415-76.404-194.703-4.258-31.288-72.146-154.233-78.548-194.703 4.257-47.707 97.613 63.012 190.596 194.703 323.79 131.691-133.194 242.41-226.177 194.703-323.789z"/>
		
		<path id="favoris-blank" d="M255.998 453.035c-151.84-147.787-194.526-202.147-203.77-257.876-11.309-68.174 39.438-136.194 118.51-136.194 33.889 0 64.684 13.021 85.26 34.764 20.575-21.743 51.372-34.764 85.258-34.764 78.727 0 129.877 67.68 118.512 136.194-9.043 54.517-48.909 107.153-203.77 257.876zm-85.26-354.07c-31.93 0-58.846 16.073-72.004 42.996-33.693 68.938 42.189 138.947 157.264 254.254 115.512-115.744 190.881-185.473 157.264-254.254-13.158-26.923-40.076-42.996-72.006-42.996-51.453 0-73.387 40.516-85.258 59.65-11.151-17.971-31.196-59.65-85.26-59.65z"/>
	
		<path id="profil" d="M256.868 316.465c-34.166-7.885-65.97-14.783-50.569-43.82 46.886-88.391 12.428-135.662-37.078-135.662-50.484 0-84.091 49.085-37.081 135.662 15.864 29.213-17.134 36.105-50.568 43.82-34.151 7.875-31.524 25.879-31.524 58.553h238.347c-.001-32.674 2.624-50.678-31.527-58.553zm205.132-175.414h-161.057v48.97h161.057v-48.97zm0 92.498h-161.057v48.971h161.057v-48.971zm0 92.498h-105.557v48.971h105.557v-48.971z"/>
	
		<path id="tableau" d="M50 73.5v365h412v-365h-412zm372 191.028h-146v-94.028h146v94.028zm-186-94.028v94.028h-146v-94.028h146zm-146 134.028h146v93.972h-146v-93.972zm186 93.972v-93.972h146v93.972h-146z"/>
	
		<path id="user" d="M377.055 170.75c0 66.275-53.726 120-120 120s-120-53.725-120-120c0-66.273 53.726-120 120-120s120 53.727 120 120zm-20.954 125.66c-27.968 22.084-62.633 34.34-99.046 34.34-36.835 0-71.839-12.543-99.934-35.051-74.054 27.176-107.121 122.178-107.121 165.551h412c0-43-33.322-137.324-105.899-164.84z"/>
	
		<path id="warning-blank" d="M228.55 134.812h54.9v166.5h-54.9v-166.5zm27.45 250.376c-16.362 0-29.626-13.264-29.626-29.625 0-16.362 13.264-29.627 29.626-29.627 16.361 0 29.625 13.265 29.625 29.627 0 16.361-13.264 29.625-29.625 29.625zm0-295.188c91.742 0 166 74.245 166 166 0 91.741-74.245 166-166 166-91.742 0-166-74.245-166-166 0-91.741 74.245-166 166-166zm0-40c-113.771 0-206 92.229-206 206s92.229 206 206 206 206-92.229 206-206-92.229-206-206-206z"/>
	
		<path id="warning-full" d="M256.002 50c-113.773 0-206.003 92.229-206.003 206.001 0 113.77 92.23 205.999 206.003 205.999 113.77 0 205.999-92.229 205.999-205.999 0-113.772-92.23-206.001-205.999-206.001zm-30.502 70.792h61v184.999h-61v-184.999zm30.5 280.417c-18.18 0-32.917-14.738-32.917-32.918s14.737-32.918 32.917-32.918 32.917 14.738 32.917 32.918-14.737 32.918-32.917 32.918z"/>
	
	</defs>

</svg>