<svg xmlns="http://www.w3.org/2000/svg" width="512" height="512" viewBox="0 0 512 512"><path d="M255.998 453.035c-151.84-147.787-194.526-202.147-203.77-257.876-11.309-68.174 39.438-136.194 118.51-136.194 33.889 0 64.684 13.021 85.26 34.764 20.575-21.743 51.372-34.764 85.258-34.764 78.727 0 129.877 67.68 118.512 136.194-9.043 54.517-48.909 107.153-203.77 257.876zm-85.26-354.07c-31.93 0-58.846 16.073-72.004 42.996-33.693 68.938 42.189 138.947 157.264 254.254 115.512-115.744 190.881-185.473 157.264-254.254-13.158-26.923-40.076-42.996-72.006-42.996-51.453 0-73.387 40.516-85.258 59.65-11.151-17.971-31.196-59.65-85.26-59.65z"/></svg>