<svg xmlns="http://www.w3.org/2000/svg" width="512" height="512" viewBox="0 0 512 512"><path d="M423.411 145.434c-6.802-11.713-6.82-26.229-.027-37.948l.033-.057c10.571-18.31 4.297-41.724-14.012-52.293-18.31-10.571-41.723-4.299-52.293 14.011l-.034.058c-6.76 11.756-19.315 18.984-32.877 18.95-98.275-.248-137.096 164.946-228.579 145.286l-18.976 32.865 316.258 182.591 18.975-32.864c-62.767-69.398 60.885-185.615 11.532-270.599zm-25.381-70.597c7.416 4.283 9.968 13.799 5.685 21.217-4.282 7.416-13.799 9.966-21.216 5.684s-9.968-13.8-5.686-21.216c4.283-7.418 13.8-9.967 21.217-5.685zm-89.514 361.05c-14.418 24.972-46.349 33.527-71.321 19.109-24.971-14.418-33.527-46.348-19.11-71.319l90.431 52.21z"/></svg>